<svg width="256" height="256" viewBox="0 0 256 256" fill="none" xmlns="http://www.w3.org/2000/svg">
<rect width="256" height="256" fill="#E2E0CB"/>
<path d="M47 53.6992L59.2933 46.4841C77.679 37.0821 88.4039 35.6466 108.467 41.4229L147.395 56.7127C154.249 60.0042 157.286 59.8162 164.811 59.7818C148.648 59.7371 145.878 67.9211 140.365 83.9801C140.272 84.2503 140.194 84.4832 140.106 84.755C138.276 90.3981 115.808 159.69 113.589 166.901C111.276 174.42 109.491 177.797 105.393 182.247C99.9079 187.336 95.1743 188.995 87.9767 189.408C80.933 188.872 77.5973 187.657 73.5952 184.685C71.5158 183.14 69.6557 181.304 68.12 179.218C65.7062 175.94 64.4332 173.027 63.8062 169.012C63.3772 166.265 63.4888 163.457 63.9461 160.714C64.8309 155.406 66.3466 151.837 70.5622 147.464C76.24 142.41 79.9744 140.673 87.9777 140.303C96.9738 140.461 103.475 146.384 103.344 155.648C103.244 159.434 102.78 161.739 101.397 164.037C100.166 166.083 98.4109 167.795 96.3884 169.063C93.9187 170.613 91.6803 171.034 87.9777 170.994C83.349 170.987 79.3721 168.467 77.7333 166.901M132.029 109.966C146.456 93.7745 155.469 86.299 174.031 77.2288C185.084 72.302 189.994 71.6165 194.52 77.2288C196.533 80.0599 196.258 85.4522 195.088 95.1742C194.722 98.2092 194.051 101.2 193.119 104.112L165.367 190.829C163.643 196.217 162.552 201.897 163.439 207.484C164.534 214.385 167.011 216.958 171.982 218.407C180.986 220.274 185.932 218.052 194.52 207.153" stroke="black" stroke-width="7"/>
</svg>
